<svg width="103" height="103" fill="none" xmlns="http://www.w3.org/2000/svg"><path d="M41.725 55.346c2.295 0 4.005-1.17 4.005-3.045 0-1.275-.75-2.025-1.89-2.55.885-.465 1.53-1.17 1.53-2.34 0-1.65-1.545-2.865-3.645-2.865s-3.645 1.23-3.645 2.835c0 1.2.645 1.905 1.53 2.37-1.185.495-1.89 1.29-1.89 2.565 0 1.83 1.71 3.03 4.005 3.03zm0-6.21c-1.08 0-1.875-.645-1.875-1.56 0-.825.75-1.485 1.875-1.485s1.875.66 1.875 1.47c0 .93-.795 1.575-1.875 1.575zm0 4.665c-1.38 0-2.205-.72-2.205-1.575 0-.99.96-1.62 2.205-1.62s2.205.63 2.205 1.59c0 .9-.825 1.605-2.205 1.605zm9.208 1.575c2.82 0 4.5-2.34 4.5-5.715 0-2.1-.495-3.255-1.275-4.035-.735-.735-1.59-1.11-2.91-1.11-2.325 0-3.915 1.575-3.915 3.63 0 2.055 1.485 3.36 3.72 3.36 1.125 0 1.935-.48 2.46-1.11-.06 1.935-.99 3.3-2.535 3.3-.9 0-1.605-.315-2.4-.99l-1.005 1.41c.885.735 1.905 1.26 3.36 1.26zm.39-5.415c-1.305 0-2.145-.78-2.145-1.875 0-1.11.78-1.98 2.085-1.98 1.335 0 2.19.84 2.19 1.935 0 1.05-.795 1.92-2.13 1.92zm8.149-.015c1.485 0 2.49-1.23 2.49-2.685 0-1.47-.99-2.685-2.46-2.685-1.485 0-2.49 1.23-2.49 2.685 0 1.47.99 2.685 2.46 2.685zm-1.395 5.25h1.485l7.68-10.5h-1.485l-7.68 10.5zm7.74.12c1.485 0 2.49-1.23 2.49-2.685 0-1.47-.99-2.685-2.46-2.685-1.485 0-2.49 1.23-2.49 2.685 0 1.47.99 2.685 2.46 2.685zm-6.315-6.525c-.675 0-1.155-.675-1.155-1.53 0-.84.42-1.53 1.125-1.53.675 0 1.155.69 1.155 1.53 0 .84-.42 1.53-1.125 1.53zm6.345 5.37c-.675 0-1.155-.675-1.155-1.53 0-.84.42-1.53 1.125-1.53.675 0 1.155.69 1.155 1.53 0 .84-.42 1.53-1.125 1.53z" fill="#333"/><g filter="url(#filter0_dd_133_1994)"><path d="M51.696 16.082c0-1.15-.933-2.089-2.08-2.02a34.696 34.696 0 1036.713 36.715c.07-1.148-.87-2.081-2.019-2.081-1.15 0-2.074.933-2.153 2.08a30.532 30.532 0 11-32.541-32.542c1.147-.078 2.08-1.003 2.08-2.152z" fill="#F2D745"/></g><defs><filter id="filter0_dd_133_1994" x=".986" y=".714" width="101.36" height="101.36" filterUnits="userSpaceOnUse" color-interpolation-filters="sRGB"><feFlood flood-opacity="0" result="BackgroundImageFix"/><feColorMatrix in="SourceAlpha" values="0 0 0 0 0 0 0 0 0 0 0 0 0 0 0 0 0 0 127 0" result="hardAlpha"/><feOffset dy="2.669"/><feGaussianBlur stdDeviation="8.007"/><feComposite in2="hardAlpha" operator="out"/><feColorMatrix values="0 0 0 0 0.79987 0 0 0 0 0.711855 0 0 0 0 0.235922 0 0 0 0.5 0"/><feBlend in2="BackgroundImageFix" result="effect1_dropShadow_133_1994"/><feColorMatrix in="SourceAlpha" values="0 0 0 0 0 0 0 0 0 0 0 0 0 0 0 0 0 0 127 0" result="hardAlpha"/><feOffset dy="1.601"/><feGaussianBlur stdDeviation="1.334"/><feComposite in2="hardAlpha" operator="out"/><feColorMatrix values="0 0 0 0 0.966536 0 0 0 0 0.887209 0 0 0 0 0.458252 0 0 0 0.6 0"/><feBlend in2="effect1_dropShadow_133_1994" result="effect2_dropShadow_133_1994"/><feBlend in="SourceGraphic" in2="effect2_dropShadow_133_1994" result="shape"/></filter></defs></svg>