<svg width="19" height="19" fill="none" xmlns="http://www.w3.org/2000/svg"><path d="M7.873 2.157c.502-1.59 2.752-1.59 3.254 0a1.706 1.706 0 002.415 1c1.48-.77 3.07.822 2.3 2.301a1.706 1.706 0 001.001 2.415c1.59.502 1.59 2.752 0 3.254a1.706 1.706 0 00-1 2.415c.77 1.48-.822 3.07-2.301 2.3a1.706 1.706 0 00-2.415 1.001c-.502 1.59-2.752 1.59-3.254 0a1.706 1.706 0 00-2.415-1c-1.48.77-3.07-.822-2.3-2.301a1.707 1.707 0 00-1.001-2.415c-1.59-.502-1.59-2.752 0-3.254a1.706 1.706 0 001-2.415c-.77-1.48.822-3.07 2.301-2.3.941.489 2.096.01 2.415-1.001z" fill="#72E44B"/></svg>