<svg width="1004" height="1341" fill="none" xmlns="http://www.w3.org/2000/svg"><circle cx="699" cy="548" r="524.5" stroke="#D3D3D3"/><circle cx="699" cy="548" r="698.5" stroke="#D3D3D3"/><circle cx="699" cy="548" r="364.5" stroke="#D3D3D3"/><g filter="url(#filter0_d_626_785)"><path fill-rule="evenodd" clip-rule="evenodd" d="M105.085 268.079c-5.39-2.805-12.031-.71-14.836 4.678l-7.519 14.446c-2.657 5.105-.917 11.334 3.855 14.361l-2.375 4.562c-.227.437-.03.886.354.809l8.835-1.778 8.455 4.401c5.389 2.804 12.031.71 14.836-4.679l7.519-14.446c2.805-5.388.71-12.031-4.679-14.836l-14.445-7.518z" fill="#fff"/><path d="M110.947 293.562l-5.585-2.907a.51.51 0 00-.682.228.527.527 0 00-.035.399l1.814 6.118a.492.492 0 00.722.304 8.392 8.392 0 003.919-3.375.509.509 0 00-.153-.767zm-2.945-12.096a.51.51 0 00-.681.229l-3.344 6.425a.509.509 0 00.202.69l6.209 3.232a.51.51 0 00.682-.23c1.706-3.812.387-8.259-3.068-10.346z" fill="#8ECDF6"/><path d="M104.754 296.036l-2.112-7.124a.523.523 0 01.043-.385l3.483-6.696a.507.507 0 00-.204-.687c-3.842-1.701-8.453-.036-10.487 3.873-2.115 4.063-.648 9.015 3.277 11.058a7.824 7.824 0 005.621.617.522.522 0 00.339-.268.523.523 0 00.04-.388z" fill="#8ECDF6"/></g><g filter="url(#filter1_d_626_785)"><rect x="886.019" y="252.776" width="154.331" height="37.694" rx="11" transform="rotate(-32.422 886.019 252.776)" fill="#fff"/><path d="M910.29 248.6a.43.43 0 01.654-.415l5.13 3.124a.433.433 0 00.4.028l5.434-2.388a.442.442 0 01.603.503l-1.301 5.835a.445.445 0 00.102.392l4.007 4.495a.434.434 0 01-.281.726l-5.934.482a.427.427 0 00-.337.214l-2.958 5.166a.434.434 0 01-.777-.054l-2.366-5.538a.445.445 0 00-.31-.259l-5.835-1.302a.442.442 0 01-.199-.76l4.471-3.904a.43.43 0 00.145-.374l-.648-5.971zm22.813-14.49a.43.43 0 01.654-.415l5.13 3.124a.433.433 0 00.4.028l5.434-2.388a.442.442 0 01.603.503l-1.301 5.835a.445.445 0 00.102.392l4.007 4.495a.434.434 0 01-.281.726l-5.934.482a.425.425 0 00-.337.214l-2.958 5.166a.435.435 0 01-.777-.054l-2.366-5.538a.445.445 0 00-.31-.259l-5.835-1.302a.442.442 0 01-.199-.76l4.471-3.904a.43.43 0 00.145-.374l-.648-5.971zm22.813-14.49a.43.43 0 01.654-.415l5.129 3.124a.433.433 0 00.4.028l5.435-2.388a.442.442 0 01.603.503l-1.301 5.835a.442.442 0 00.102.391l4.007 4.496a.434.434 0 01-.281.726l-5.934.482a.425.425 0 00-.337.214l-2.958 5.166a.435.435 0 01-.777-.054l-2.366-5.538a.445.445 0 00-.31-.259l-5.835-1.302a.442.442 0 01-.199-.76l4.471-3.904a.435.435 0 00.145-.374l-.648-5.971zm22.813-14.49a.43.43 0 01.654-.416l5.129 3.125a.433.433 0 00.4.028l5.435-2.388a.442.442 0 01.603.503l-1.301 5.835a.442.442 0 00.102.391l4.007 4.496a.434.434 0 01-.281.726l-5.934.482a.425.425 0 00-.337.214l-2.958 5.166a.435.435 0 01-.777-.054l-2.366-5.538a.445.445 0 00-.31-.259l-5.835-1.302a.442.442 0 01-.199-.76l4.471-3.904a.435.435 0 00.145-.374l-.648-5.971zm22.811-14.49a.434.434 0 01.66-.416l5.13 3.125c.12.074.27.085.4.028l5.43-2.388c.33-.143.68.152.6.503l-1.3 5.835a.46.46 0 00.1.391l4.01 4.496c.24.27.08.697-.28.726l-5.93.482a.418.418 0 00-.34.213l-2.96 5.167c-.18.31-.63.279-.78-.054l-2.36-5.538a.449.449 0 00-.31-.259l-5.838-1.302a.442.442 0 01-.198-.76l4.476-3.904c.1-.093.16-.232.14-.374l-.65-5.971z" fill="#FFEA01"/></g><g filter="url(#filter2_d_626_785)"><path fill-rule="evenodd" clip-rule="evenodd" d="M766.749 1222.74c-5.936 1.29-9.703 7.15-8.413 13.08l5.403 24.87c1.29 5.94 7.148 9.7 13.085 8.41l1.421-.31 1.343 6.18c.129.6.673.87.978.49l7.008-8.69 14.116-3.07c5.937-1.29 9.704-7.15 8.414-13.08l-5.403-24.87c-1.29-5.94-7.149-9.7-13.085-8.41l-24.867 5.4z" fill="#fff"/><path d="M786.643 1231.77l-8.801 1.91c-3.639.79-5.965 4.36-5.184 7.95l1.102 5.07c.754 3.48 4.137 5.72 7.648 5.16l.656 3.02c.074.34.414.55.758.48a.663.663 0 00.399-.28l.541-.83a9.78 9.78 0 016.162-4.23l.653-.15c3.64-.79 5.965-4.35 5.185-7.95l-1.102-5.07c-.781-3.59-4.378-5.87-8.017-5.08zm-6.886 12.49a1.489 1.489 0 01-1.781-1.13c-.174-.8.343-1.59 1.152-1.76a1.49 1.49 0 011.781 1.12c.174.8-.343 1.6-1.152 1.77zm4.768-1.03c-.809.17-1.608-.33-1.782-1.13-.174-.8.343-1.59 1.152-1.77a1.49 1.49 0 011.782 1.13c.173.8-.344 1.59-1.152 1.77zm4.767-1.04a1.49 1.49 0 01-1.782-1.13c-.174-.8.343-1.59 1.152-1.77.809-.17 1.608.33 1.782 1.13.173.8-.344 1.59-1.152 1.77z" fill="#72E44B"/></g><defs><filter id="filter0_d_626_785" x="25" y="228" width="154.288" height="156.73" filterUnits="userSpaceOnUse" color-interpolation-filters="sRGB"><feFlood flood-opacity="0" result="BackgroundImageFix"/><feColorMatrix in="SourceAlpha" values="0 0 0 0 0 0 0 0 0 0 0 0 0 0 0 0 0 0 127 0" result="hardAlpha"/><feOffset dy="15"/><feGaussianBlur stdDeviation="25"/><feComposite in2="hardAlpha" operator="out"/><feColorMatrix values="0 0 0 0 0.145098 0 0 0 0 0.152941 0 0 0 0 0.164706 0 0 0 0.12 0"/><feBlend in2="BackgroundImageFix" result="effect1_dropShadow_626_785"/><feBlend in="SourceGraphic" in2="effect1_dropShadow_626_785" result="shape"/></filter><filter id="filter1_d_626_785" x="836" y="135" width="250.484" height="214.564" filterUnits="userSpaceOnUse" color-interpolation-filters="sRGB"><feFlood flood-opacity="0" result="BackgroundImageFix"/><feColorMatrix in="SourceAlpha" values="0 0 0 0 0 0 0 0 0 0 0 0 0 0 0 0 0 0 127 0" result="hardAlpha"/><feOffset dy="15"/><feGaussianBlur stdDeviation="25"/><feComposite in2="hardAlpha" operator="out"/><feColorMatrix values="0 0 0 0 0.145098 0 0 0 0 0.152941 0 0 0 0 0.164706 0 0 0 0.12 0"/><feBlend in2="BackgroundImageFix" result="effect1_dropShadow_626_785"/><feBlend in="SourceGraphic" in2="effect1_dropShadow_626_785" result="shape"/></filter><filter id="filter2_d_626_785" x="706" y="1180" width="157.951" height="163.394" filterUnits="userSpaceOnUse" color-interpolation-filters="sRGB"><feFlood flood-opacity="0" result="BackgroundImageFix"/><feColorMatrix in="SourceAlpha" values="0 0 0 0 0 0 0 0 0 0 0 0 0 0 0 0 0 0 127 0" result="hardAlpha"/><feOffset dy="15"/><feGaussianBlur stdDeviation="25"/><feComposite in2="hardAlpha" operator="out"/><feColorMatrix values="0 0 0 0 0.145098 0 0 0 0 0.152941 0 0 0 0 0.164706 0 0 0 0.12 0"/><feBlend in2="BackgroundImageFix" result="effect1_dropShadow_626_785"/><feBlend in="SourceGraphic" in2="effect1_dropShadow_626_785" result="shape"/></filter></defs></svg>