<svg width="1246" height="1212" fill="none" xmlns="http://www.w3.org/2000/svg"><circle cx="699" cy="513" r="524.5" stroke="#D3D3D3"/><circle cx="699" cy="513" r="698.5" stroke="#D3D3D3"/><circle cx="699" cy="513" r="364.5" stroke="#D3D3D3"/><g filter="url(#filter0_d_114_259)"><path fill-rule="evenodd" clip-rule="evenodd" d="M1006.97 137.327c-6.06.454-10.602 5.734-10.147 11.792l.504 6.722c.364 4.855 3.823 8.736 8.303 9.853l.33 4.372c.03.369.33.578.55.376l4.93-4.628 4.4-.33c6.06-.455 10.6-5.734 10.15-11.792l-.51-6.723c-.45-6.058-5.73-10.601-11.79-10.146l-6.72.504z" fill="#fff"/></g><path d="M1014.54 144.685c-.79.06-1.51.366-2.11.909-.58.522-.95 1.158-1.16 1.616a4.893 4.893 0 00-1.38-1.425c-.69-.447-1.43-.644-2.23-.584-2.23.167-3.77 2.102-3.59 4.502.2 2.593 2.42 4.209 5.79 6.657.57.416 1.22.887 1.9 1.39.09.067.2.099.31.091a.464.464 0 00.29-.136c.59-.599 1.17-1.161 1.67-1.658 2.97-2.922 4.93-4.853 4.73-7.446-.18-2.399-1.99-4.083-4.22-3.916z" fill="#E35047"/><g filter="url(#filter1_d_114_259)"><path fill-rule="evenodd" clip-rule="evenodd" d="M440.085 575.079c-5.389-2.805-12.031-.71-14.836 4.678l-7.519 14.446c-2.657 5.105-.917 11.334 3.855 14.361l-2.374 4.562c-.228.437-.031.886.353.809l8.835-1.778 8.455 4.401c5.389 2.804 12.031.71 14.836-4.679l7.519-14.446c2.805-5.388.71-12.031-4.679-14.836l-14.445-7.518z" fill="#fff"/><path d="M445.948 600.562l-5.586-2.907a.508.508 0 00-.681.228.527.527 0 00-.036.399l1.814 6.118a.49.49 0 00.722.304 8.392 8.392 0 003.919-3.375.51.51 0 00-.152-.767zm-2.946-12.096a.508.508 0 00-.68.229l-3.345 6.425a.509.509 0 00.202.69l6.209 3.232a.51.51 0 00.682-.23c1.706-3.812.387-8.259-3.068-10.346z" fill="#8ECDF6"/><path d="M439.754 603.036l-2.112-7.124a.523.523 0 01.043-.385l3.483-6.696a.506.506 0 00-.203-.687c-3.843-1.701-8.453-.036-10.488 3.873-2.115 4.063-.648 9.015 3.277 11.058a7.826 7.826 0 005.622.617.518.518 0 00.338-.268.523.523 0 00.04-.388z" fill="#8ECDF6"/></g><defs><filter id="filter0_d_114_259" x="946.791" y="101.791" width="129.228" height="133.729" filterUnits="userSpaceOnUse" color-interpolation-filters="sRGB"><feFlood flood-opacity="0" result="BackgroundImageFix"/><feColorMatrix in="SourceAlpha" values="0 0 0 0 0 0 0 0 0 0 0 0 0 0 0 0 0 0 127 0" result="hardAlpha"/><feOffset dy="15"/><feGaussianBlur stdDeviation="25"/><feComposite in2="hardAlpha" operator="out"/><feColorMatrix values="0 0 0 0 0.145098 0 0 0 0 0.152941 0 0 0 0 0.164706 0 0 0 0.12 0"/><feBlend in2="BackgroundImageFix" result="effect1_dropShadow_114_259"/><feBlend in="SourceGraphic" in2="effect1_dropShadow_114_259" result="shape"/></filter><filter id="filter1_d_114_259" x="360" y="535" width="154.288" height="156.73" filterUnits="userSpaceOnUse" color-interpolation-filters="sRGB"><feFlood flood-opacity="0" result="BackgroundImageFix"/><feColorMatrix in="SourceAlpha" values="0 0 0 0 0 0 0 0 0 0 0 0 0 0 0 0 0 0 127 0" result="hardAlpha"/><feOffset dy="15"/><feGaussianBlur stdDeviation="25"/><feComposite in2="hardAlpha" operator="out"/><feColorMatrix values="0 0 0 0 0.145098 0 0 0 0 0.152941 0 0 0 0 0.164706 0 0 0 0.12 0"/><feBlend in2="BackgroundImageFix" result="effect1_dropShadow_114_259"/><feBlend in="SourceGraphic" in2="effect1_dropShadow_114_259" result="shape"/></filter></defs></svg>