<svg width="247" height="148" fill="none" xmlns="http://www.w3.org/2000/svg"><g filter="url(#filter0_d_107_987)"><rect x="30" y="20" width="187" height="88" rx="20" fill="#333"/><path d="M60.958 54.894l-6.16-3.724v-.476l6.16-3.696v1.218l-4.606 2.716 4.606 2.744v1.218zM67.913 56v-.798c-.56.607-1.227.91-2.002.91-.924 0-1.661-.294-2.212-.882-.55-.588-.826-1.367-.826-2.338 0-.98.322-1.778.966-2.394.654-.625 1.48-.938 2.478-.938.644 0 1.176.15 1.596.448V46.2h1.12V56h-1.12zm-1.792-.938c.69 0 1.288-.28 1.792-.84V51.1c-.513-.327-1.031-.49-1.554-.49-.644 0-1.19.21-1.638.63-.439.41-.658.952-.658 1.624 0 .681.191 1.218.574 1.61.383.392.877.588 1.484.588zm5.232.938v-6.3h1.12V56h-1.12zm-.14-8.666a.6.6 0 01.21-.476.73.73 0 01.518-.196c.187 0 .345.065.476.196a.6.6 0 01.21.476c0 .224-.07.401-.21.532a.648.648 0 01-.476.196.73.73 0 01-.518-.196c-.14-.13-.21-.308-.21-.532zm9.164 2.366l-2.786 6.356h-.812L73.853 49.7h1.316l1.526 3.402c.168.383.346.85.532 1.4.159-.513.331-.99.518-1.428l1.442-3.374h1.19z" fill="#44F856"/><path d="M89.438 54.278l.532.812a2.592 2.592 0 01-1.036.784c-.43.177-.891.266-1.386.266-1.008 0-1.825-.299-2.45-.896-.616-.607-.924-1.405-.924-2.394 0-.924.303-1.703.91-2.338s1.367-.952 2.282-.952c1.101 0 1.927.275 2.478.826l-.518.882c-.476-.439-1.078-.658-1.806-.658-.588 0-1.097.215-1.526.644-.42.42-.63.952-.63 1.596 0 .672.215 1.213.644 1.624.439.41.98.616 1.624.616.728 0 1.33-.27 1.806-.812zm1.992.042V46.2h1.12v7.616c0 .43.056.747.168.952.121.196.313.294.574.294.252 0 .518-.093.798-.28l.252.854c-.401.317-.896.476-1.484.476-.952 0-1.428-.597-1.428-1.792zm4.396-3.29l-.294-.896c.616-.383 1.316-.574 2.1-.574.868 0 1.49.215 1.862.644.374.43.56 1.073.56 1.932V56H98.99v-.812c-.485.607-1.157.91-2.016.91-.578 0-1.045-.173-1.4-.518-.354-.355-.532-.83-.532-1.428 0-.625.22-1.115.658-1.47.448-.355 1.022-.532 1.722-.532.672 0 1.195.135 1.568.406 0-.672-.093-1.171-.28-1.498-.186-.327-.569-.49-1.148-.49-.569 0-1.148.154-1.736.462zm1.54 4.06c.626 0 1.167-.27 1.624-.812v-.798c-.392-.28-.863-.42-1.414-.42-.373 0-.69.089-.952.266-.26.177-.392.434-.392.77 0 .308.098.55.294.728.206.177.486.266.84.266zm7.756-.798c0-.233-.117-.42-.35-.56a3.132 3.132 0 00-.854-.364 16.47 16.47 0 01-.994-.35 2.072 2.072 0 01-.854-.616c-.233-.28-.35-.635-.35-1.064 0-.541.196-.97.588-1.288.401-.327.919-.49 1.554-.49.933 0 1.657.247 2.17.742l-.532.854a2.297 2.297 0 00-1.582-.616c-.308 0-.555.08-.742.238a.69.69 0 00-.266.546c0 .243.117.443.35.602.233.15.513.275.84.378.336.093.672.205 1.008.336.336.121.621.317.854.588.233.261.35.597.35 1.008 0 .625-.233 1.101-.7 1.428-.467.317-1.045.476-1.736.476-.485 0-.957-.103-1.414-.308-.448-.205-.751-.43-.91-.672l.63-.798c.187.215.457.401.812.56.364.159.7.238 1.008.238.317 0 .583-.075.798-.224a.758.758 0 00.322-.644zm6.016 0c0-.233-.117-.42-.35-.56a3.146 3.146 0 00-.854-.364 16.47 16.47 0 01-.994-.35 2.072 2.072 0 01-.854-.616c-.234-.28-.35-.635-.35-1.064 0-.541.196-.97.588-1.288.401-.327.919-.49 1.554-.49.933 0 1.656.247 2.17.742l-.532.854a2.3 2.3 0 00-1.582-.616c-.308 0-.556.08-.742.238a.687.687 0 00-.266.546c0 .243.116.443.35.602.233.15.513.275.84.378.336.093.672.205 1.008.336.336.121.62.317.854.588.233.261.35.597.35 1.008 0 .625-.234 1.101-.7 1.428-.467.317-1.046.476-1.736.476a3.42 3.42 0 01-1.414-.308c-.448-.205-.752-.43-.91-.672l.63-.798c.186.215.457.401.812.56.364.159.7.238 1.008.238.317 0 .583-.075.798-.224a.76.76 0 00.322-.644zM54.966 74.19v-.98h6.356v.98h-6.356zm0 2.52v-.98h6.356v.98h-6.356zm10.441-6.51l.938-.56c.27.29.406.672.406 1.148 0 .943-.397 1.638-1.19 2.086l-.518-.49c.439-.308.658-.76.658-1.358 0-.355-.098-.63-.294-.826zm-2.03 0l.938-.56c.27.29.406.672.406 1.148 0 .943-.397 1.638-1.19 2.086l-.518-.49c.439-.308.658-.76.658-1.358 0-.355-.098-.63-.294-.826zm8.481 8.092c0-.233-.117-.42-.35-.56a3.136 3.136 0 00-.854-.364c-.326-.103-.658-.22-.994-.35a2.074 2.074 0 01-.854-.616c-.233-.28-.35-.635-.35-1.064 0-.541.196-.97.588-1.288.401-.327.92-.49 1.554-.49.933 0 1.657.247 2.17.742l-.532.854a2.297 2.297 0 00-1.582-.616c-.308 0-.555.08-.742.238a.689.689 0 00-.266.546c0 .243.117.443.35.602.234.15.514.275.84.378.336.093.672.205 1.008.336.336.121.62.317.854.588.234.261.35.597.35 1.008 0 .625-.233 1.101-.7 1.428-.466.317-1.045.476-1.736.476-.485 0-.956-.103-1.414-.308-.448-.205-.751-.43-.91-.672l.63-.798c.187.215.457.401.812.56.364.159.7.238 1.008.238.317 0 .584-.075.798-.224a.76.76 0 00.322-.644zm2.684-.686V71.95h1.12v1.75h2.31v1.05h-2.31v2.744c0 1.045.373 1.568 1.12 1.568.355 0 .686-.117.994-.35l.35.868c-.43.355-.966.532-1.61.532-.69 0-1.195-.21-1.512-.63-.308-.42-.462-1.045-.462-1.876zm5.411-2.576l-.294-.896c.616-.383 1.316-.574 2.1-.574.868 0 1.489.215 1.862.644.374.43.56 1.073.56 1.932V80h-1.064v-.812c-.485.607-1.157.91-2.016.91-.578 0-1.045-.173-1.4-.518-.354-.355-.532-.83-.532-1.428 0-.625.22-1.115.658-1.47.448-.355 1.022-.532 1.722-.532.672 0 1.195.135 1.568.406 0-.672-.093-1.171-.28-1.498-.186-.327-.569-.49-1.148-.49-.569 0-1.148.154-1.736.462zm1.54 4.06c.626 0 1.167-.27 1.624-.812v-.798c-.392-.28-.863-.42-1.414-.42-.373 0-.69.089-.952.266-.261.177-.392.434-.392.77 0 .308.098.55.294.728.206.177.486.266.84.266zm4.564.91v-6.3h1.12v.742c.382-.57.91-.854 1.582-.854.439 0 .765.08.98.238l-.392 1.05a1.663 1.663 0 00-.854-.238c-.57 0-1.008.299-1.316.896V80h-1.12zm4.618-2.394V71.95h1.12v1.75h2.31v1.05h-2.31v2.744c0 1.045.373 1.568 1.12 1.568.354 0 .686-.117.994-.35l.35.868c-.43.355-.966.532-1.61.532-.691 0-1.195-.21-1.512-.63-.308-.42-.462-1.045-.462-1.876zM96.058 80v-6.3h1.12V80h-1.12zm-.14-8.666a.6.6 0 01.21-.476.73.73 0 01.518-.196c.187 0 .346.065.476.196a.6.6 0 01.21.476c0 .224-.07.401-.21.532a.648.648 0 01-.476.196.73.73 0 01-.518-.196c-.14-.13-.21-.308-.21-.532zm3.578 8.078V70.2h1.12v4.102a2.82 2.82 0 01.882-.532c.355-.14.714-.21 1.078-.21.924 0 1.652.294 2.184.882.542.588.812 1.358.812 2.31 0 1.036-.317 1.862-.952 2.478-.634.607-1.484.91-2.548.91-1.045 0-1.904-.243-2.576-.728zm2.828-4.802a2.1 2.1 0 00-.994.252 2.12 2.12 0 00-.714.56v3.234c.43.29.934.434 1.512.434.654 0 1.19-.2 1.61-.602.43-.41.644-.961.644-1.652 0-.7-.191-1.246-.574-1.638-.373-.392-.868-.588-1.484-.588zm3.848 8.19v-1.12h4.368v1.12h-4.368zm4.361 0v-1.12h4.368v1.12h-4.368zm5.706-7.77l-.294-.896c.616-.383 1.316-.574 2.1-.574.868 0 1.488.215 1.862.644.373.43.56 1.073.56 1.932V80h-1.064v-.812c-.486.607-1.158.91-2.016.91-.579 0-1.046-.173-1.4-.518-.355-.355-.532-.83-.532-1.428 0-.625.219-1.115.658-1.47.448-.355 1.022-.532 1.722-.532.672 0 1.194.135 1.568.406 0-.672-.094-1.171-.28-1.498-.187-.327-.57-.49-1.148-.49-.57 0-1.148.154-1.736.462zm1.54 4.06c.625 0 1.166-.27 1.624-.812v-.798c-.392-.28-.864-.42-1.414-.42-.374 0-.691.089-.952.266-.262.177-.392.434-.392.77 0 .308.098.55.294.728.205.177.485.266.84.266zm3.695 1.82c0-.495.177-.905.532-1.232.364-.327.859-.555 1.484-.686-.103-.13-.154-.303-.154-.518 0-.215.056-.392.168-.532a2.244 2.244 0 01-1.05-.812 2.259 2.259 0 01-.364-1.26c0-.653.233-1.2.7-1.638.476-.448 1.101-.672 1.876-.672.607 0 1.139.154 1.596.462l1.848-.448.028.91-1.19.294c.196.317.294.681.294 1.092a2.12 2.12 0 01-.714 1.624c-.476.43-1.097.644-1.862.644-.187 0-.327-.005-.42-.014a.775.775 0 00-.07.35.68.68 0 00.126.42h.182a1.9 1.9 0 01.196-.014c.961 0 1.736.173 2.324.518.588.345.882.85.882 1.512 0 .653-.294 1.148-.882 1.484-.588.345-1.363.518-2.324.518-.961 0-1.736-.168-2.324-.504-.588-.336-.882-.835-.882-1.498zm1.624-.826c-.383.205-.574.48-.574.826 0 .345.191.611.574.798.392.196.919.294 1.582.294s1.185-.093 1.568-.28c.392-.187.588-.457.588-.812 0-.345-.191-.62-.574-.826-.383-.196-.91-.294-1.582-.294s-1.199.098-1.582.294zm.042-4.214c0 .392.14.719.42.98.28.252.649.378 1.106.378.448 0 .812-.126 1.092-.378a1.24 1.24 0 00.434-.98 1.3 1.3 0 00-.42-.994c-.28-.27-.649-.406-1.106-.406-.457 0-.826.135-1.106.406a1.3 1.3 0 00-.42.994zm11.09 2.562l.35.882c-.607.55-1.395.826-2.366.826-1.017 0-1.834-.299-2.45-.896-.616-.597-.924-1.395-.924-2.394 0-.952.289-1.736.868-2.352.579-.625 1.372-.938 2.38-.938.831 0 1.526.27 2.086.812.56.532.84 1.223.84 2.072 0 .29-.023.541-.07.756H130.1c.047.588.266 1.05.658 1.386.401.336.915.504 1.54.504.821 0 1.465-.22 1.932-.658zm-2.198-3.822c-.56 0-1.017.159-1.372.476-.355.308-.565.71-.63 1.204h3.822c-.028-.523-.205-.933-.532-1.232-.317-.299-.747-.448-1.288-.448zm4.501 5.39v-6.3h1.12v.77c.234-.252.537-.462.91-.63a2.773 2.773 0 011.148-.252c1.746 0 2.618.924 2.618 2.772V80h-1.12v-3.43c0-1.288-.592-1.932-1.778-1.932-.709 0-1.302.27-1.778.812V80h-1.12zm12.528-1.722l.532.812a2.592 2.592 0 01-1.036.784 3.593 3.593 0 01-1.386.266c-1.008 0-1.825-.299-2.45-.896-.616-.607-.924-1.405-.924-2.394 0-.924.303-1.703.91-2.338s1.367-.952 2.282-.952c1.101 0 1.927.275 2.478.826l-.518.882c-.476-.439-1.078-.658-1.806-.658-.588 0-1.097.215-1.526.644-.42.42-.63.952-.63 1.596 0 .672.215 1.213.644 1.624.439.41.98.616 1.624.616.728 0 1.33-.27 1.806-.812zm7.595-4.578l-2.52 6.3c-.448 1.092-.845 1.83-1.19 2.212-.345.392-.751.588-1.218.588-.401 0-.798-.13-1.19-.392l.364-.854c.299.14.532.21.7.21.261 0 .495-.112.7-.336.215-.224.429-.588.644-1.092l.14-.336-3.024-6.3h1.344l1.848 4.004c.037.084.163.401.378.952.084-.308.182-.63.294-.966l1.456-3.99h1.274zm3.935-3.5l.938-.56c.27.29.406.672.406 1.148 0 .943-.397 1.638-1.19 2.086l-.518-.49c.438-.308.658-.76.658-1.358 0-.355-.098-.63-.294-.826zm-2.03 0l.938-.56c.27.29.406.672.406 1.148 0 .943-.397 1.638-1.19 2.086l-.518-.49c.438-.308.658-.76.658-1.358 0-.355-.098-.63-.294-.826zm11.757 4.97l-6.146 3.724v-1.218l4.606-2.744-4.606-2.716v-1.218l6.146 3.696v.476z" fill="#fff"/></g><g filter="url(#filter1_d_107_987)"><path d="M187 15a1 1 0 011-1h11a1 1 0 011 1v14.736c0 .869-1.031 1.325-1.673.74l-4.154-3.784a.999.999 0 00-1.346 0l-4.154 3.784c-.642.585-1.673.129-1.673-.74V15z" fill="#E35047"/></g><defs><filter id="filter0_d_107_987" x="0" y="0" width="247" height="148" filterUnits="userSpaceOnUse" color-interpolation-filters="sRGB"><feFlood flood-opacity="0" result="BackgroundImageFix"/><feColorMatrix in="SourceAlpha" values="0 0 0 0 0 0 0 0 0 0 0 0 0 0 0 0 0 0 127 0" result="hardAlpha"/><feOffset dy="10"/><feGaussianBlur stdDeviation="15"/><feComposite in2="hardAlpha" operator="out"/><feColorMatrix values="0 0 0 0 0 0 0 0 0 0 0 0 0 0 0 0 0 0 0.3 0"/><feBlend in2="BackgroundImageFix" result="effect1_dropShadow_107_987"/><feBlend in="SourceGraphic" in2="effect1_dropShadow_107_987" result="shape"/></filter><filter id="filter1_d_107_987" x="183" y="12" width="21" height="24.738" filterUnits="userSpaceOnUse" color-interpolation-filters="sRGB"><feFlood flood-opacity="0" result="BackgroundImageFix"/><feColorMatrix in="SourceAlpha" values="0 0 0 0 0 0 0 0 0 0 0 0 0 0 0 0 0 0 127 0" result="hardAlpha"/><feOffset dy="2"/><feGaussianBlur stdDeviation="2"/><feComposite in2="hardAlpha" operator="out"/><feColorMatrix values="0 0 0 0 0.804051 0 0 0 0 0.298274 0 0 0 0 0.267307 0 0 0 0.46 0"/><feBlend in2="BackgroundImageFix" result="effect1_dropShadow_107_987"/><feBlend in="SourceGraphic" in2="effect1_dropShadow_107_987" result="shape"/></filter></defs></svg>