<svg width="0" height="0" class="hidden"><symbol fill="none" xmlns="http://www.w3.org/2000/svg" viewBox="0 0 30 30" id="fb-1"><path d="M16.746 26.246V16.001h3.457l.513-4.011h-3.97V9.435c0-1.158.323-1.95 1.984-1.95h2.105V3.909a27.92 27.92 0 00-3.084-.159c-3.055 0-5.152 1.865-5.152 5.289v2.944H9.165v4.01h3.441v10.253h4.14z" fill="currentColor"/></symbol><symbol fill="none" xmlns="http://www.w3.org/2000/svg" viewBox="0 0 10 20" id="fb"><path d="M1.962 3.873v2.754H0v3.367h1.962V20h4.03V9.994h2.703s.254-1.614.376-3.38H6.007V4.313c0-.344.439-.807.873-.807h2.196V0H6.09C1.862 0 1.96 3.37 1.96 3.873z" fill="#333"/></symbol><symbol fill="none" xmlns="http://www.w3.org/2000/svg" viewBox="0 0 20 20" id="inst"><path d="M10 4.866c-.923 0-1.786.238-2.59.714a5.148 5.148 0 00-1.874 1.875A5.002 5.002 0 004.866 10c0 .923.223 1.786.67 2.59a5.648 5.648 0 001.875 1.874c.803.447 1.666.67 2.589.67s1.77-.223 2.545-.67a5.148 5.148 0 001.875-1.875A4.993 4.993 0 0015.134 10c0-.923-.238-1.77-.714-2.545a4.735 4.735 0 00-1.875-1.875A4.763 4.763 0 0010 4.866zm0 8.482a3.225 3.225 0 01-2.366-.982A3.225 3.225 0 016.652 10c0-.923.327-1.711.982-2.366A3.225 3.225 0 0110 6.652c.923 0 1.711.327 2.366.982s.982 1.443.982 2.366-.327 1.711-.982 2.366a3.225 3.225 0 01-2.366.982zm6.563-8.705a1.34 1.34 0 01-.402.848 1.019 1.019 0 01-.804.357c-.327 0-.61-.119-.848-.357a1.159 1.159 0 01-.357-.848c0-.328.119-.61.357-.848s.52-.357.848-.357c.328 0 .61.119.848.357.239.238.358.52.358.848zm3.392 1.205c-.06-.863-.193-1.607-.401-2.232a4.887 4.887 0 00-1.25-1.92 4.885 4.885 0 00-1.92-1.25C15.759.238 15.014.12 14.152.09 13.319.03 11.935 0 10 0S6.667.03 5.804.09C4.97.118 4.24.237 3.616.445a5.273 5.273 0 00-1.964 1.25 5.135 5.135 0 00-1.206 1.92C.238 4.24.104 4.985.045 5.847.015 6.682 0 8.065 0 10c0 1.934.015 3.333.045 4.196.06.834.193 1.563.401 2.188.268.744.67 1.399 1.206 1.964.565.536 1.22.923 1.964 1.16.625.239 1.354.373 2.188.403.863.06 2.261.089 4.196.089 1.934 0 3.319-.03 4.152-.09.863-.029 1.607-.148 2.232-.356a5.136 5.136 0 001.92-1.206 5.274 5.274 0 001.25-1.964c.208-.625.327-1.354.357-2.188.06-.863.089-2.261.089-4.196 0-1.935-.015-3.318-.045-4.152zm-2.142 10.045c-.358.893-.997 1.533-1.92 1.92-.476.178-1.28.297-2.41.357-.626.03-1.549.044-2.769.044H9.286a65.05 65.05 0 01-2.768-.044c-1.101-.06-1.905-.179-2.41-.358-.894-.357-1.534-.997-1.92-1.92-.18-.505-.298-1.309-.358-2.41a65.128 65.128 0 01-.044-2.768V9.286c0-1.19.015-2.113.044-2.768.06-1.131.179-1.935.357-2.41.358-.923.998-1.563 1.92-1.92.506-.18 1.31-.298 2.41-.358.656-.03 1.578-.044 2.769-.044h1.428c1.19 0 2.113.015 2.768.044 1.131.06 1.935.179 2.41.357.924.358 1.563.998 1.92 1.92.18.476.298 1.28.358 2.41.03.626.044 1.548.044 2.769v1.428c0 1.19-.015 2.113-.044 2.768-.06 1.101-.179 1.905-.358 2.41z" fill="#333"/></symbol><symbol fill="none" xmlns="http://www.w3.org/2000/svg" viewBox="0 0 25 20" id="vk"><path d="M23.873 15.643a1.707 1.707 0 00-.082-.16c-.416-.766-1.212-1.707-2.386-2.823l-.025-.025-.012-.013-.013-.013h-.013c-.533-.52-.87-.869-1.012-1.047-.258-.341-.316-.686-.175-1.036.1-.264.475-.821 1.125-1.673.341-.451.612-.813.812-1.086 1.441-1.959 2.066-3.21 1.874-3.756l-.074-.127c-.05-.077-.18-.147-.387-.211-.209-.064-.475-.075-.8-.032l-3.6.025a.457.457 0 00-.25.007l-.162.038-.062.032-.05.039a.561.561 0 00-.137.134.882.882 0 00-.125.223 21.079 21.079 0 01-1.337 2.875 27.37 27.37 0 01-.85 1.373c-.258.388-.475.673-.65.856-.175.183-.333.33-.475.44-.141.112-.25.158-.325.141a9.14 9.14 0 01-.212-.05.842.842 0 01-.281-.314 1.425 1.425 0 01-.144-.498c-.025-.2-.04-.373-.044-.518-.004-.144-.002-.349.007-.613.008-.264.012-.443.012-.536 0-.324.006-.675.019-1.054.012-.38.023-.68.031-.901.009-.222.013-.456.013-.703 0-.247-.015-.44-.044-.581a2.024 2.024 0 00-.131-.409.685.685 0 00-.256-.307 1.427 1.427 0 00-.419-.172c-.441-.102-1.004-.158-1.687-.166-1.55-.017-2.545.085-2.986.307a1.69 1.69 0 00-.475.383c-.15.187-.171.29-.063.306.5.077.854.26 1.062.55l.075.153c.059.11.117.307.175.588.059.28.096.592.113.932a10.31 10.31 0 010 1.597c-.042.443-.081.788-.119 1.035a2.109 2.109 0 01-.169.6 2.542 2.542 0 01-.15.281.217.217 0 01-.062.064.918.918 0 01-.337.064c-.117 0-.259-.06-.425-.179a3.024 3.024 0 01-.519-.492 6.518 6.518 0 01-.606-.875 15.384 15.384 0 01-.7-1.328l-.2-.37a32.13 32.13 0 01-.512-1.042 20.309 20.309 0 01-.575-1.323.84.84 0 00-.3-.408l-.062-.039a.85.85 0 00-.2-.108 1.304 1.304 0 00-.287-.083L.8 3.64c-.35 0-.587.081-.712.243l-.05.077A.422.422 0 000 4.164c0 .094.025.209.075.345.5 1.201 1.043 2.36 1.63 3.475C2.294 9.1 2.804 10 3.237 10.68a31.8 31.8 0 001.325 1.929c.45.604.748.992.893 1.162.146.17.26.298.344.384l.312.306c.2.205.494.45.881.735.388.285.817.566 1.287.843a6.863 6.863 0 001.644.677 5.566 5.566 0 001.824.211h1.437c.292-.026.512-.12.662-.281l.05-.064a.856.856 0 00.094-.236c.03-.107.044-.224.044-.351a4.305 4.305 0 01.08-.99c.063-.294.134-.516.213-.665a1.634 1.634 0 01.482-.562.807.807 0 01.1-.045c.2-.068.434-.002.706.199.27.2.524.447.762.74.237.295.523.624.856.99.333.367.625.64.874.818l.25.154c.167.102.384.196.65.28.267.086.5.107.7.065l3.199-.051c.316 0 .562-.054.737-.16.175-.107.279-.224.312-.352a1.01 1.01 0 00.007-.434 1.637 1.637 0 00-.088-.338z" fill="#333"/></symbol><symbol fill="none" xmlns="http://www.w3.org/2000/svg" viewBox="0 0 62 33" id="graph"><path d="M2 29.954s6.146 1.79 12.292 0C28.614 25.78 24-.75 35 6.25c13.178 8.386 23.656 7.939 25.5-4" stroke="#4461F8" stroke-width="3" stroke-linecap="round" stroke-linejoin="round"/></symbol><symbol fill="none" xmlns="http://www.w3.org/2000/svg" viewBox="0 0 11 12" id="arrow-up"><path d="M2.56 7.036L5.162 9.64l2.604-2.604M5.163 2.348v7.219" stroke="#fff" stroke-width=".643" stroke-miterlimit="10" stroke-linecap="round" stroke-linejoin="round"/></symbol><symbol fill="none" xmlns="http://www.w3.org/2000/svg" viewBox="0 0 143 61" id="graph-dis"><g filter="url(#filter0_d_511_580)"><rect x="4" y="22" width="6.028" height="31" rx="3.014" fill="#F2D745"/></g><g filter="url(#filter1_d_511_580)"><rect x="20.028" y="7" width="6.028" height="46" rx="3.014" fill="#F2D745"/></g><g filter="url(#filter2_d_511_580)"><rect x="36.056" y="22" width="6.028" height="31" rx="3.014" fill="#F2D745"/></g><g filter="url(#filter3_d_511_580)"><rect x="52.084" y="22" width="6.028" height="31" rx="3.014" fill="#F2D745"/></g><g filter="url(#filter4_d_511_580)"><rect x="68.113" y="7" width="6.028" height="46" rx="3.014" fill="#F2D745"/></g><g filter="url(#filter5_d_511_580)"><rect x="84.141" width="6.028" height="53" rx="3.014" fill="#F2D745"/></g><g filter="url(#filter6_d_511_580)"><rect x="100.169" y="7" width="6.028" height="46" rx="3.014" fill="#F2D745"/></g><g filter="url(#filter7_d_511_580)"><rect x="116.197" y="22" width="6.028" height="31" rx="3.014" fill="#F2D745"/></g><g filter="url(#filter8_d_511_580)"><rect x="132.225" y="22" width="6.028" height="31" rx="3.014" fill="#F2D745"/></g><defs><filter id="filter0_d_511_580" x="0" y="22" width="14.028" height="39" filterUnits="userSpaceOnUse" color-interpolation-filters="sRGB"><feFlood flood-opacity="0" result="BackgroundImageFix"/><feColorMatrix in="SourceAlpha" values="0 0 0 0 0 0 0 0 0 0 0 0 0 0 0 0 0 0 127 0" result="hardAlpha"/><feOffset dy="4"/><feGaussianBlur stdDeviation="2"/><feComposite in2="hardAlpha" operator="out"/><feColorMatrix values="0 0 0 0 0 0 0 0 0 0 0 0 0 0 0 0 0 0 0.25 0"/><feBlend in2="BackgroundImageFix" result="effect1_dropShadow_511_580"/><feBlend in="SourceGraphic" in2="effect1_dropShadow_511_580" result="shape"/></filter><filter id="filter1_d_511_580" x="16.028" y="7" width="14.028" height="54" filterUnits="userSpaceOnUse" color-interpolation-filters="sRGB"><feFlood flood-opacity="0" result="BackgroundImageFix"/><feColorMatrix in="SourceAlpha" values="0 0 0 0 0 0 0 0 0 0 0 0 0 0 0 0 0 0 127 0" result="hardAlpha"/><feOffset dy="4"/><feGaussianBlur stdDeviation="2"/><feComposite in2="hardAlpha" operator="out"/><feColorMatrix values="0 0 0 0 0 0 0 0 0 0 0 0 0 0 0 0 0 0 0.25 0"/><feBlend in2="BackgroundImageFix" result="effect1_dropShadow_511_580"/><feBlend in="SourceGraphic" in2="effect1_dropShadow_511_580" result="shape"/></filter><filter id="filter2_d_511_580" x="32.056" y="22" width="14.028" height="39" filterUnits="userSpaceOnUse" color-interpolation-filters="sRGB"><feFlood flood-opacity="0" result="BackgroundImageFix"/><feColorMatrix in="SourceAlpha" values="0 0 0 0 0 0 0 0 0 0 0 0 0 0 0 0 0 0 127 0" result="hardAlpha"/><feOffset dy="4"/><feGaussianBlur stdDeviation="2"/><feComposite in2="hardAlpha" operator="out"/><feColorMatrix values="0 0 0 0 0 0 0 0 0 0 0 0 0 0 0 0 0 0 0.25 0"/><feBlend in2="BackgroundImageFix" result="effect1_dropShadow_511_580"/><feBlend in="SourceGraphic" in2="effect1_dropShadow_511_580" result="shape"/></filter><filter id="filter3_d_511_580" x="48.084" y="22" width="14.028" height="39" filterUnits="userSpaceOnUse" color-interpolation-filters="sRGB"><feFlood flood-opacity="0" result="BackgroundImageFix"/><feColorMatrix in="SourceAlpha" values="0 0 0 0 0 0 0 0 0 0 0 0 0 0 0 0 0 0 127 0" result="hardAlpha"/><feOffset dy="4"/><feGaussianBlur stdDeviation="2"/><feComposite in2="hardAlpha" operator="out"/><feColorMatrix values="0 0 0 0 0 0 0 0 0 0 0 0 0 0 0 0 0 0 0.25 0"/><feBlend in2="BackgroundImageFix" result="effect1_dropShadow_511_580"/><feBlend in="SourceGraphic" in2="effect1_dropShadow_511_580" result="shape"/></filter><filter id="filter4_d_511_580" x="64.113" y="7" width="14.028" height="54" filterUnits="userSpaceOnUse" color-interpolation-filters="sRGB"><feFlood flood-opacity="0" result="BackgroundImageFix"/><feColorMatrix in="SourceAlpha" values="0 0 0 0 0 0 0 0 0 0 0 0 0 0 0 0 0 0 127 0" result="hardAlpha"/><feOffset dy="4"/><feGaussianBlur stdDeviation="2"/><feComposite in2="hardAlpha" operator="out"/><feColorMatrix values="0 0 0 0 0 0 0 0 0 0 0 0 0 0 0 0 0 0 0.25 0"/><feBlend in2="BackgroundImageFix" result="effect1_dropShadow_511_580"/><feBlend in="SourceGraphic" in2="effect1_dropShadow_511_580" result="shape"/></filter><filter id="filter5_d_511_580" x="80.141" y="0" width="14.028" height="61" filterUnits="userSpaceOnUse" color-interpolation-filters="sRGB"><feFlood flood-opacity="0" result="BackgroundImageFix"/><feColorMatrix in="SourceAlpha" values="0 0 0 0 0 0 0 0 0 0 0 0 0 0 0 0 0 0 127 0" result="hardAlpha"/><feOffset dy="4"/><feGaussianBlur stdDeviation="2"/><feComposite in2="hardAlpha" operator="out"/><feColorMatrix values="0 0 0 0 0 0 0 0 0 0 0 0 0 0 0 0 0 0 0.25 0"/><feBlend in2="BackgroundImageFix" result="effect1_dropShadow_511_580"/><feBlend in="SourceGraphic" in2="effect1_dropShadow_511_580" result="shape"/></filter><filter id="filter6_d_511_580" x="96.169" y="7" width="14.028" height="54" filterUnits="userSpaceOnUse" color-interpolation-filters="sRGB"><feFlood flood-opacity="0" result="BackgroundImageFix"/><feColorMatrix in="SourceAlpha" values="0 0 0 0 0 0 0 0 0 0 0 0 0 0 0 0 0 0 127 0" result="hardAlpha"/><feOffset dy="4"/><feGaussianBlur stdDeviation="2"/><feComposite in2="hardAlpha" operator="out"/><feColorMatrix values="0 0 0 0 0 0 0 0 0 0 0 0 0 0 0 0 0 0 0.25 0"/><feBlend in2="BackgroundImageFix" result="effect1_dropShadow_511_580"/><feBlend in="SourceGraphic" in2="effect1_dropShadow_511_580" result="shape"/></filter><filter id="filter7_d_511_580" x="112.197" y="22" width="14.028" height="39" filterUnits="userSpaceOnUse" color-interpolation-filters="sRGB"><feFlood flood-opacity="0" result="BackgroundImageFix"/><feColorMatrix in="SourceAlpha" values="0 0 0 0 0 0 0 0 0 0 0 0 0 0 0 0 0 0 127 0" result="hardAlpha"/><feOffset dy="4"/><feGaussianBlur stdDeviation="2"/><feComposite in2="hardAlpha" operator="out"/><feColorMatrix values="0 0 0 0 0 0 0 0 0 0 0 0 0 0 0 0 0 0 0.25 0"/><feBlend in2="BackgroundImageFix" result="effect1_dropShadow_511_580"/><feBlend in="SourceGraphic" in2="effect1_dropShadow_511_580" result="shape"/></filter><filter id="filter8_d_511_580" x="128.225" y="22" width="14.028" height="39" filterUnits="userSpaceOnUse" color-interpolation-filters="sRGB"><feFlood flood-opacity="0" result="BackgroundImageFix"/><feColorMatrix in="SourceAlpha" values="0 0 0 0 0 0 0 0 0 0 0 0 0 0 0 0 0 0 127 0" result="hardAlpha"/><feOffset dy="4"/><feGaussianBlur stdDeviation="2"/><feComposite in2="hardAlpha" operator="out"/><feColorMatrix values="0 0 0 0 0 0 0 0 0 0 0 0 0 0 0 0 0 0 0.25 0"/><feBlend in2="BackgroundImageFix" result="effect1_dropShadow_511_580"/><feBlend in="SourceGraphic" in2="effect1_dropShadow_511_580" result="shape"/></filter></defs></symbol><symbol fill="none" xmlns="http://www.w3.org/2000/svg" viewBox="0 0 136 20" id="graph-long"><path d="M1.8 9.588l8.91 4.833c8.466 3.906 17.6 4.317 21.163 3.187 4.787-1.52 4.438-3.506 7.129-8.02 2.69-4.514 5.569-6.888 14.925-7.813C72.485-.06 67.257 18.969 78.506 17.352c6.174-.887 5.563-5.727 13.96-7.764 8.701-2.11 10.872 6.762 17.82 4.833 6.108-1.696 4.777-9.95 12.03-10.898 7.252-.948 12.029 4.626 12.029 4.626" stroke="#2C67FE" stroke-width="1.93" stroke-linecap="round" stroke-linejoin="round"/></symbol><symbol fill="none" xmlns="http://www.w3.org/2000/svg" viewBox="0 0 12 4" id="points"><path d="M1.578.729A1.29 1.29 0 00.29 2.016c0 .707.58 1.287 1.287 1.287a1.29 1.29 0 001.287-1.287A1.29 1.29 0 001.578.729zm9.008 0a1.29 1.29 0 00-1.287 1.287c0 .707.579 1.287 1.287 1.287a1.29 1.29 0 001.287-1.287A1.29 1.29 0 0010.586.729zm-4.504 0a1.29 1.29 0 00-1.287 1.287c0 .707.58 1.287 1.287 1.287a1.29 1.29 0 001.287-1.287A1.29 1.29 0 006.082.729z" fill="#fff"/></symbol><symbol fill="none" xmlns="http://www.w3.org/2000/svg" viewBox="0 0 122 62" id="descr-img"><path d="M2.103 59.943c2.913-8.286 13.68-28.16 25.002-27.736 2.36 0 6.053 1.833 9.158 1.586 2.22-.176 7.493-3.597 10.823-15.868 3.33-12.272 6.58-15.876 8.741-15.868 1.289 0 3.913 2.538 6.244 14.81 2.637 10.931 10.49 32.689 20.813 32.265 2.22.177 7.743-1.904 12.072-11.636 5.273-10.932 17.067-31.737 24.976-31.737" stroke="#F2D745" stroke-width="3" stroke-linecap="round" stroke-linejoin="round"/></symbol><symbol fill="none" xmlns="http://www.w3.org/2000/svg" viewBox="0 0 76 10" id="rate"><path d="M1.28 3.833l2.886-.399 1.29-2.49a.374.374 0 01.652 0l1.29 2.49 2.885.4a.37.37 0 01.208.1.338.338 0 01.103.246.34.34 0 01-.11.244L8.397 6.36l.493 2.736a.33.33 0 01-.022.19.349.349 0 01-.123.149.375.375 0 01-.383.026L5.782 8.17 3.2 9.462a.377.377 0 01-.23.035.348.348 0 01-.297-.4l.493-2.736-2.088-1.937a.34.34 0 01-.105-.198.348.348 0 01.306-.393zm15.75 0l2.885-.399 1.29-2.49a.374.374 0 01.652 0l1.29 2.49 2.886.4a.37.37 0 01.207.1.338.338 0 01.104.246.339.339 0 01-.11.244L24.146 6.36l.493 2.736a.331.331 0 01-.021.19.349.349 0 01-.123.149.375.375 0 01-.383.026l-2.58-1.292-2.581 1.292a.377.377 0 01-.231.035.348.348 0 01-.297-.4l.493-2.736-2.087-1.937a.34.34 0 01-.106-.198.348.348 0 01.307-.393zm16.624 0l2.886-.399 1.29-2.49a.374.374 0 01.652 0l1.29 2.49 2.885.4a.37.37 0 01.208.1.338.338 0 01.103.246.34.34 0 01-.11.244L40.771 6.36l.493 2.736a.33.33 0 01-.022.19.349.349 0 01-.123.149.374.374 0 01-.382.026L38.156 8.17l-2.581 1.292a.377.377 0 01-.23.035.348.348 0 01-.297-.4l.493-2.736-2.088-1.937a.34.34 0 01-.105-.198.348.348 0 01.306-.393zm15.75 0l2.885-.399 1.29-2.49a.374.374 0 01.652 0l1.29 2.49 2.886.4a.37.37 0 01.208.1.338.338 0 01.103.246.339.339 0 01-.11.244L56.52 6.36l.493 2.736a.331.331 0 01-.02.19.349.349 0 01-.124.149.375.375 0 01-.383.026l-2.58-1.292-2.581 1.292a.377.377 0 01-.231.035.348.348 0 01-.297-.4l.494-2.736-2.088-1.937a.34.34 0 01-.106-.198.348.348 0 01.307-.393zm16.625 0l2.885-.399 1.29-2.49a.353.353 0 01.165-.156.374.374 0 01.487.157l1.29 2.489 2.885.4a.37.37 0 01.208.1.338.338 0 01.103.246.34.34 0 01-.11.244L73.145 6.36l.493 2.736a.331.331 0 01-.021.19.349.349 0 01-.123.149.375.375 0 01-.383.026L70.53 8.17l-2.58 1.292a.377.377 0 01-.231.035.348.348 0 01-.297-.4l.493-2.736-2.087-1.937a.34.34 0 01-.106-.198.348.348 0 01.307-.393z" fill="#F2D745"/></symbol><symbol fill="none" xmlns="http://www.w3.org/2000/svg" viewBox="0 0 30 30" id="desc-icon"><path d="M5.63 2.5a.626.626 0 100 1.251.626.626 0 000-1.251zm-2.502 0a.626.626 0 100 1.251.626.626 0 000-1.251zm24.289 23.565l-1.878-.469-.079-.313a4.13 4.13 0 00.976-1.936c.334-.17.576-.5.627-.893l.135-1.088a1.164 1.164 0 00-.508-1.112l.031-.663.115-.115c.323-.342.76-1.073.068-2.128-.33-.5-1.004-1.098-2.356-1.098-.398 0-1.297 0-2.17.546-2.575.091-2.878 1.478-2.878 2.524 0 .206.038.593.073.915a1.166 1.166 0 00-.535 1.133l.135 1.087c.052.408.31.745.692.911.14.681.467 1.341.924 1.865l-.092.368-1.878.468a3.404 3.404 0 00-2.582 3.308.622.622 0 00.626.625l12.512-.004c.345 0 .625-.28.625-.625a3.403 3.403 0 00-2.583-3.306zM17.58 28.75a2.16 2.16 0 011.543-1.47l2.242-.56c.224-.055.4-.23.456-.454l.267-1.066a.623.623 0 00-.18-.608 2.828 2.828 0 01-.862-1.788c-.026-.326-.304-.506-.63-.506l-.162-.994a.623.623 0 00.62-.703c-.047-.377-.123-1.06-.123-1.28 0-.647 0-1.259 1.829-1.277a.627.627 0 00.358-.117c.595-.426 1.28-.426 1.61-.426.96 0 1.223.401 1.31.533.255.388.151.498.08.573l-.272.271a.627.627 0 00-.183.413l-.066 1.36c-.007.17.013.289.13.413.117.123.238.148.408.15l-.081 1.016a.626.626 0 00-.623.576 2.848 2.848 0 01-.903 1.823.625.625 0 00-.19.616l.256 1.021c.056.224.23.4.455.455l2.242.56a2.157 2.157 0 011.544 1.47L17.58 28.75z" fill="#333"/><path d="M15.012 26.25H3.128a1.878 1.878 0 01-1.877-1.875V6.25h25.02V15a.626.626 0 001.252 0V3.125A3.13 3.13 0 0024.395 0H3.128A3.13 3.13 0 000 3.125v21.25A3.13 3.13 0 003.128 27.5h11.884a.625.625 0 100-1.25zM1.252 3.125c0-1.034.841-1.875 1.876-1.875h21.267c1.035 0 1.877.841 1.877 1.875V5H1.252V3.125z" fill="#333"/><path d="M8.132 2.5a.626.626 0 100 1.251.626.626 0 000-1.251z" fill="#333"/></symbol><symbol fill="none" xmlns="http://www.w3.org/2000/svg" viewBox="0 0 50 50" id="form-icon"><path d="M49.99 19.115a.788.788 0 00-.034-.17.84.84 0 00-.048-.143.75.75 0 00-.083-.128.785.785 0 00-.11-.129c-.014-.011-.02-.027-.034-.039l-8.015-6.224V5.83a2.5 2.5 0 00-2.5-2.5h-9.031L26.519.523a2.471 2.471 0 00-3.04 0L19.863 3.33H10.83a2.5 2.5 0 00-2.5 2.5v6.452L.32 18.506c-.014.012-.02.028-.033.04a.786.786 0 00-.111.129.747.747 0 00-.083.127.82.82 0 00-.048.144.789.789 0 00-.034.166c0 .018-.01.033-.01.05V47.5c.001.53.173 1.046.49 1.47.004.008.005.017.01.024.007.007.02.014.027.023a2.49 2.49 0 001.97.983H47.5a2.488 2.488 0 001.977-.987c.006-.008.016-.01.022-.019.006-.008.007-.016.012-.023.316-.425.488-.941.489-1.471V19.165c0-.018-.01-.033-.01-.05zM24.499 1.838a.8.8 0 01.994 0l1.922 1.492h-4.833l1.917-1.492zM2.708 48.333l21.79-16.927a.8.8 0 01.995 0L47.29 48.333H2.708zm45.625-1.299L26.52 30.091a2.473 2.473 0 00-3.04 0L1.664 47.034v-26.6l13.657 10.605a.834.834 0 001.021-1.318L2.468 18.948l5.863-4.556v6.44a.833.833 0 101.667 0V5.83c0-.46.373-.833.833-.833h28.335c.46 0 .833.373.833.833v15.001a.833.833 0 101.667 0v-6.44l5.863 4.557L33.63 29.74a.833.833 0 101.021 1.317l13.681-10.623v26.6z" fill="#F2D745"/><path d="M35 19.998v-3.334c0-5.523-4.478-10-10.001-10s-10 4.477-10 10c0 5.524 4.476 10.001 10 10.001a.833.833 0 100-1.667 8.334 8.334 0 118.333-8.333v3.333a1.667 1.667 0 01-3.333 0v-3.333a.833.833 0 10-1.667 0A3.334 3.334 0 1125 13.33a.833.833 0 100-1.667 5 5 0 103.369 8.685A3.324 3.324 0 0035 19.997z" fill="#F2D745"/></symbol><symbol fill="none" xmlns="http://www.w3.org/2000/svg" viewBox="0 0 20 21" id="barchart"><path d="M1.538 17.615c0-.106.087-.192.193-.192h16.538a.192.192 0 010 .385H1.731a.192.192 0 01-.193-.193zm1.538-8.269a1.154 1.154 0 012.308 0v5.385a1.154 1.154 0 11-2.308 0V9.346zm7.694-2.307a1.154 1.154 0 012.308 0v7.692a1.154 1.154 0 11-2.308 0V7.039zM9.23 14.73a1.154 1.154 0 11-2.308 0v-10a1.154 1.154 0 112.308 0v10zm7.694 0a1.154 1.154 0 01-2.308 0v-2.307a1.154 1.154 0 112.308 0v2.308z" fill="#F2D745"/></symbol><symbol fill="none" xmlns="http://www.w3.org/2000/svg" viewBox="0 0 50 50" id="icon-1"><path d="M26.04 12.5c-2.019 0-3.979.448-5.829 1.33a1.043 1.043 0 00.9 1.88 11.35 11.35 0 014.929-1.127c5.65 0 10.518 4.217 11.324 9.809a1.043 1.043 0 001.179.883c.57-.081.964-.61.883-1.18-.954-6.61-6.71-11.595-13.386-11.595z" fill="#333"/><path d="M15.135 9.535A19.667 19.667 0 0126.04 6.25c10.911 0 19.79 8.88 19.783 19.925a8.7 8.7 0 00-.012.233c-.008.565.437.944 1.002.967h.037c.548 0 1.015-.508 1.052-1.058.002-.025.013-.252.013-.275 0-12.063-9.812-21.875-21.873-21.875a21.77 21.77 0 00-12.057 3.63 1.041 1.041 0 101.15 1.738zm30.563 33.911l-3.126-.782-.132-.523a6.91 6.91 0 001.627-3.227 1.951 1.951 0 001.042-1.49l.225-1.812a1.944 1.944 0 00-.844-1.854l.052-1.106.19-.19c.537-.57 1.264-1.789.114-3.547-.545-.836-1.67-1.832-3.924-1.832-.665 0-2.163 0-3.617.91-4.287.153-4.79 2.463-4.79 4.207 0 .344.062.987.12 1.525a1.938 1.938 0 00-.89 1.887l.226 1.813c.085.68.516 1.242 1.151 1.519a6.922 6.922 0 001.54 3.108l-.152.613-3.127.78a5.675 5.675 0 00-4.302 5.513A1.036 1.036 0 0028.123 50l20.835-.002c.575 0 1.042-.467 1.042-1.042a5.67 5.67 0 00-4.302-5.51zm-16.381 4.469a3.602 3.602 0 012.576-2.45l3.733-.934c.373-.093.665-.385.759-.758l.443-1.777a1.04 1.04 0 00-.3-1.013 4.714 4.714 0 01-1.435-2.98c-.044-.54-.506-.84-1.05-.84l-.269-1.659a1.037 1.037 0 001.034-1.17c-.08-.63-.207-1.767-.207-2.134 0-1.079 0-2.098 3.046-2.129.212-.002.42-.069.596-.194.991-.71 2.133-.71 2.68-.71 1.078 0 1.79.29 2.182.887.423.648.25.832.133.959l-.452.452a1.04 1.04 0 00-.304.685l-.11 2.267c-.013.283.02.481.214.687.196.207.396.248.679.25l-.133 1.694a1.04 1.04 0 00-1.038.958 4.762 4.762 0 01-1.506 3.04 1.042 1.042 0 00-.314 1.027l.425 1.702c.093.373.383.667.758.758l3.733.934a3.594 3.594 0 012.57 2.45l-18.443-.002z" fill="#333"/><path d="M29.962 37.948a1.04 1.04 0 00-1.256-.773c-7.557 1.787-14.123-3.952-14.123-11.133 0-1.707.379-3.365 1.127-4.927a1.042 1.042 0 10-1.88-.9 13.414 13.414 0 00-1.33 5.827c0 7.466 6.074 13.541 13.54 13.541 1.025 0 2.085-.129 3.152-.38.558-.134.904-.695.77-1.255z" fill="#333"/><path d="M24.344 45.746C14.197 44.883 6.25 36.229 6.25 26.042c0-3.89 1.136-7.663 3.285-10.909a1.045 1.045 0 00-.293-1.443 1.044 1.044 0 00-1.444.293 21.786 21.786 0 00-3.63 12.059c0 11.26 8.786 20.829 20.001 21.78.03.005.059.005.09.005a1.043 1.043 0 00.085-2.081z" fill="#333"/><path d="M5.209 10.417h3.735l12.755 12.758a5.172 5.172 0 00-.867 2.867 5.214 5.214 0 005.208 5.208 5.214 5.214 0 005.208-5.208 5.214 5.214 0 00-5.208-5.209c-1.06 0-2.044.323-2.866.87L10.416 8.942V5.209c0-.277-.11-.541-.304-.737L5.946.304a1.043 1.043 0 00-1.779.738v3.125H1.042a1.044 1.044 0 00-.737 1.779l4.166 4.167c.196.193.46.304.738.304zm18.019 14.287l2.074 2.075a1.046 1.046 0 001.475 0 1.042 1.042 0 000-1.473l-2.076-2.077a3.08 3.08 0 011.339-.312 3.129 3.129 0 013.125 3.125 3.129 3.129 0 01-3.125 3.125 3.129 3.129 0 01-3.125-3.125c0-.482.119-.932.313-1.338zM5.208 6.25c.576 0 1.042-.467 1.042-1.042V3.556L8.333 5.64v2.693H5.64L3.557 6.25h1.652z" fill="#333"/></symbol><symbol fill="none" xmlns="http://www.w3.org/2000/svg" viewBox="0 0 50 50" id="icon-2"><path d="M9.383 4.167a1.043 1.043 0 100 2.085 1.043 1.043 0 000-2.085zm-4.17 0a1.043 1.043 0 100 2.085 1.043 1.043 0 000-2.085zm40.481 39.275l-3.13-.782-.13-.522a6.88 6.88 0 001.626-3.225 1.95 1.95 0 001.044-1.49l.225-1.813a1.941 1.941 0 00-.846-1.854l.052-1.104.192-.192c.538-.57 1.266-1.79.113-3.547-.549-.834-1.673-1.83-3.927-1.83-.663 0-2.162 0-3.617.91-4.291.153-4.796 2.463-4.796 4.207 0 .344.063.987.12 1.525a1.943 1.943 0 00-.892 1.887l.228 1.813c.085.68.517 1.242 1.153 1.519a6.914 6.914 0 001.538 3.108l-.152.612-3.13.782a5.674 5.674 0 00-4.303 5.512A1.036 1.036 0 0028.105 50l20.852-.006c.576 0 1.043-.467 1.043-1.042a5.67 5.67 0 00-4.306-5.51zM29.3 47.915a3.603 3.603 0 012.573-2.45l3.737-.934a1.04 1.04 0 00.759-.756l.446-1.777a1.039 1.039 0 00-.3-1.012 4.714 4.714 0 01-1.437-2.982c-.044-.541-.507-.841-1.05-.841l-.27-1.659a1.038 1.038 0 001.034-1.17c-.079-.63-.206-1.767-.206-2.134 0-1.079 0-2.098 3.048-2.129.213-.002.421-.069.597-.194.992-.71 2.135-.71 2.683-.71 1.601 0 2.04.668 2.185.887.424.648.25.832.134.957l-.455.452a1.044 1.044 0 00-.305.687l-.11 2.267c-.013.283.02.481.217.687.194.206.396.248.68.25l-.136 1.694c-.544 0-.994.419-1.038.96-.09 1.121-.668 2.286-1.506 3.038a1.042 1.042 0 00-.315 1.027l.426 1.702c.094.373.383.667.759.758l3.736.934a3.595 3.595 0 012.573 2.45L29.3 47.915z" fill="#000"/><path d="M25.02 43.75H5.214a3.13 3.13 0 01-3.128-3.125V10.417h41.701V25a1.042 1.042 0 002.086 0V5.208A5.217 5.217 0 0040.659 0H5.213A5.216 5.216 0 000 5.208v35.417a5.216 5.216 0 005.213 5.208H25.02a1.043 1.043 0 100-2.083zM2.086 5.208a3.13 3.13 0 013.128-3.125H40.66a3.13 3.13 0 013.127 3.125v3.125h-41.7V5.208z" fill="#000"/><path d="M13.553 4.167a1.043 1.043 0 100 2.085 1.043 1.043 0 000-2.085z" fill="#000"/></symbol><symbol fill="none" xmlns="http://www.w3.org/2000/svg" viewBox="0 0 50 50" id="icon-3"><path d="M45.698 43.442l-3.127-.782-.131-.522a6.886 6.886 0 001.627-3.225 1.953 1.953 0 001.041-1.49l.227-1.813a1.95 1.95 0 00-.845-1.854l.054-1.104.192-.192c.537-.57 1.264-1.79.112-3.548-.546-.833-1.67-1.829-3.923-1.829-.662 0-2.16 0-3.617.91-4.287.153-4.791 2.463-4.791 4.207 0 .344.062.987.12 1.525a1.946 1.946 0 00-.891 1.887l.227 1.813c.085.68.517 1.242 1.152 1.519a6.965 6.965 0 001.54 3.108l-.153.612-3.127.782a5.673 5.673 0 00-4.302 5.512A1.036 1.036 0 0028.125 50l20.833-.002c.575 0 1.042-.467 1.042-1.042a5.68 5.68 0 00-4.302-5.514zm-16.38 4.473a3.614 3.614 0 012.574-2.453l3.733-.933c.373-.092.667-.383.758-.756l.444-1.777a1.038 1.038 0 00-.298-1.013 4.704 4.704 0 01-1.435-2.98c-.044-.543-.507-.84-1.05-.84l-.267-1.659a1.037 1.037 0 001.033-1.17c-.079-.63-.206-1.767-.206-2.134 0-1.079 0-2.098 3.044-2.129a1.04 1.04 0 00.596-.194c.993-.71 2.133-.71 2.68-.71 1.599 0 2.038.668 2.178.89.425.647.25.83.135.956l-.454.452a1.043 1.043 0 00-.304.687l-.11 2.267c-.013.283.022.481.216.687.196.207.398.248.681.25l-.135 1.694c-.544 0-.996.417-1.04.958a4.727 4.727 0 01-1.502 3.038 1.043 1.043 0 00-.314 1.03l.427 1.701c.094.37.385.665.758.756l3.733.934a3.593 3.593 0 012.571 2.45l-18.445-.002z" fill="#000"/><path d="M29.515 36.458c0-.575-.467-1.041-1.042-1.041H25V25h20.78c-.02.41-.022.825-.065 1.23a1.043 1.043 0 002.073.216c.085-.817.129-1.648.129-2.488C47.917 10.748 37.169 0 23.958 0 10.748 0 0 10.748 0 23.958c0 13.21 10.748 23.959 23.958 23.959.575 0 1.042-.467 1.042-1.042V37.5h3.473c.575 0 1.042-.467 1.042-1.042zM45.78 22.917h-8.31c-.088-3.782-.633-7.317-1.569-10.417h6.654a21.702 21.702 0 013.225 10.417zm-4.675-12.5h-5.912c-1.134-2.975-2.646-5.438-4.413-7.23a21.939 21.939 0 0110.325 7.23zM25 2.187c3.144.571 5.96 3.69 7.873 8.23H25v-8.23zM25 12.5h8.646c1.019 3.077 1.644 6.636 1.742 10.417H25V12.5zm-7.865-9.313c-1.766 1.792-3.279 4.255-4.412 7.23H6.81a21.938 21.938 0 0110.325-7.23zM5.36 12.5h6.655c-.936 3.1-1.482 6.636-1.57 10.417h-8.31A21.702 21.702 0 015.36 12.5zM2.135 25h8.31c.088 3.781.634 7.317 1.57 10.417H5.36A21.703 21.703 0 012.135 25zM6.81 37.5h5.913c1.133 2.975 2.646 5.438 4.412 7.23A21.937 21.937 0 016.81 37.5zm16.107 8.23c-3.144-.572-5.96-3.69-7.873-8.23h7.873v8.23zm0-10.313H14.27C13.252 32.34 12.627 28.78 12.529 25h10.388v10.417zm0-12.5H12.529c.098-3.782.723-7.34 1.742-10.417h8.646v10.417zm0-12.5h-7.873c1.912-4.54 4.729-7.659 7.873-8.23v8.23z" fill="#000"/></symbol><symbol fill="none" xmlns="http://www.w3.org/2000/svg" viewBox="0 0 51 50" id="icon-4"><path d="M27.625 40.478h3.188a1.064 1.064 0 000-2.13h-25.5a3.195 3.195 0 01-3.188-3.196v-1.065h26.563a1.064 1.064 0 000-2.13H2.125V5.325A3.195 3.195 0 015.312 2.13h38.25a3.195 3.195 0 013.188 3.196V24.5c0 .588.476 1.065 1.063 1.065.586 0 1.062-.477 1.062-1.065V5.326C48.875 2.39 46.493 0 43.563 0H5.313C2.383 0 0 2.39 0 5.326v29.826c0 2.936 2.382 5.326 5.312 5.326H21.25v2.13h-7.438c-2.93 0-5.312 2.39-5.312 5.327 0 .587.476 1.065 1.063 1.065h14.874a1.064 1.064 0 000-2.13h-13.63a3.192 3.192 0 013.005-2.131H25.5a1.064 1.064 0 000-2.13h-2.125v-2.13H25.5v1.064c0 .588.476 1.066 1.063 1.066.586 0 1.062-.478 1.062-1.066v-1.065z" fill="#000"/><path d="M46.616 42.297l-3.19-.798-.133-.535a7.074 7.074 0 001.66-3.3 1.995 1.995 0 001.062-1.523l.23-1.854a1.991 1.991 0 00-.861-1.896l.053-1.131.193-.194c.548-.584 1.29-1.83.117-3.628-.557-.854-1.704-1.873-4.004-1.873-.677 0-2.205 0-3.689.931-4.373.156-4.887 2.518-4.887 4.302 0 .351.064 1.01.123 1.56a2 2 0 00-.907 1.93l.23 1.853c.086.694.526 1.27 1.174 1.553a7.085 7.085 0 001.57 3.178l-.154.627-3.19.799a5.8 5.8 0 00-4.388 5.637A1.061 1.061 0 0028.688 49l21.25-.002c.586 0 1.062-.477 1.062-1.065a5.8 5.8 0 00-4.384-5.636zm-16.71 4.57a3.68 3.68 0 012.626-2.505l3.808-.955c.38-.095.677-.394.773-.775l.453-1.817a1.065 1.065 0 00-.306-1.035 4.825 4.825 0 01-1.464-3.05c-.045-.55-.517-.858-1.071-.858l-.275-1.696a1.061 1.061 0 001.054-1.197c-.08-.643-.21-1.806-.21-2.181 0-1.104 0-2.146 3.107-2.178.216-.002.429-.07.607-.198 1.012-.727 2.177-.727 2.736-.727 1.096 0 1.825.297 2.224.908.432.663.255.85.136.98l-.46.462a1.065 1.065 0 00-.31.701l-.114 2.318c-.012.29.022.492.22.703.199.211.403.254.692.256l-.136 1.732c-.555 0-1.014.426-1.058.98-.094 1.148-.682 2.34-1.537 3.108a1.068 1.068 0 00-.32 1.05l.433 1.741c.096.381.391.682.773.775l3.81.955a3.67 3.67 0 012.623 2.505l-18.815-.002z" fill="#000"/><path d="M42.542 35.152c0-.588-.476-1.065-1.062-1.065h-.021c-.589 0-1.052.477-1.052 1.065s.489 1.065 1.073 1.065c.587 0 1.063-.477 1.063-1.065z" fill="#000"/></symbol><symbol fill="none" xmlns="http://www.w3.org/2000/svg" viewBox="0 0 50 50" id="icon-5"><path d="M30.38 39.583c.58 0 1.049-.466 1.049-1.041s-.47-1.042-1.048-1.042H22c-.578 0-1.048.467-1.048 1.042s.47 1.041 1.048 1.041h8.38zm4.191 2.084H17.81c-.579 0-1.048.466-1.048 1.041s.47 1.042 1.047 1.042h16.762c.579 0 1.048-.467 1.048-1.042s-.47-1.041-1.048-1.041zm0-8.334H17.81c-.579 0-1.048.467-1.048 1.042s.47 1.042 1.047 1.042h16.762c.579 0 1.048-.467 1.048-1.042s-.47-1.042-1.048-1.042zM33.39 22.61l-3.145-.78-.132-.524a6.896 6.896 0 001.636-3.227 1.95 1.95 0 001.048-1.49l.226-1.812a1.937 1.937 0 00-.849-1.854l.053-1.106.19-.19c.541-.57 1.272-1.79.116-3.548-.55-.835-1.68-1.831-3.948-1.831-.666 0-2.172 0-3.635.913-4.312.152-4.819 2.462-4.819 4.206 0 .343.063.987.122 1.525a1.966 1.966 0 00-.422.358c-.373.42-.544.977-.473 1.53l.226 1.812c.086.679.52 1.242 1.159 1.518a6.905 6.905 0 001.548 3.109l-.153.612-3.145.782a5.681 5.681 0 00-4.326 5.512c0 .277.109.544.306.738.197.193.463.304.741.304l20.955-.004c.578 0 1.047-.467 1.047-1.042a5.676 5.676 0 00-4.326-5.51zm-16.475 4.471a3.614 3.614 0 012.592-2.45l3.754-.933a1.05 1.05 0 00.763-.758l.446-1.777a1.036 1.036 0 00-.301-1.013 4.703 4.703 0 01-1.444-2.981c-.044-.54-.51-.84-1.056-.84l-.27-1.658a1.045 1.045 0 001.039-1.17c-.08-.63-.208-1.768-.208-2.134 0-1.08 0-2.098 3.064-2.13.213-.001.423-.068.599-.193.997-.71 2.145-.71 2.696-.71 1.084 0 1.8.289 2.194.887.425.648.251.831.134.958l-.455.452a1.037 1.037 0 00-.305.686l-.112 2.267c-.012.283.021.48.216.687.197.206.398.248.683.25l-.134 1.694c-.547 0-1 .416-1.043.958-.092 1.123-.673 2.288-1.515 3.04-.287.256-.41.652-.316 1.027l.427 1.702c.094.373.386.666.763.758l3.754.933a3.605 3.605 0 012.586 2.45l-18.551-.002z" fill="#000"/><path d="M40.857 0H5.238C3.505 0 2.095 1.402 2.095 3.125v5.208H1.048C.469 8.333 0 8.8 0 9.375s.47 1.042 1.048 1.042h1.047v8.333H1.048C.469 18.75 0 19.217 0 19.792s.47 1.041 1.048 1.041h1.047v8.334H1.048c-.579 0-1.048.466-1.048 1.041s.47 1.042 1.048 1.042h1.047v8.333H1.048C.469 39.583 0 40.05 0 40.625s.47 1.042 1.048 1.042h1.047v5.208c0 1.723 1.41 3.125 3.143 3.125h35.62C42.59 50 44 48.598 44 46.875V3.125C44 1.402 42.59 0 40.857 0zm1.048 46.875c0 .575-.472 1.042-1.048 1.042H5.238a1.046 1.046 0 01-1.048-1.042v-5.208h2.288a3.136 3.136 0 002.95 2.083c1.733 0 3.143-1.402 3.143-3.125S11.161 37.5 9.43 37.5a3.136 3.136 0 00-2.95 2.083H4.19V31.25h2.288a3.136 3.136 0 002.95 2.083c1.732 0 3.142-1.402 3.142-3.125s-1.41-3.125-3.142-3.125a3.136 3.136 0 00-2.95 2.084H4.19v-8.334h2.288a3.136 3.136 0 002.95 2.084c1.732 0 3.142-1.402 3.142-3.125s-1.41-3.125-3.142-3.125a3.136 3.136 0 00-2.95 2.083H4.19v-8.333h2.288a3.136 3.136 0 002.95 2.083c1.732 0 3.142-1.402 3.142-3.125S11.161 6.25 9.43 6.25a3.136 3.136 0 00-2.95 2.083H4.19V3.125c0-.575.47-1.042 1.047-1.042h35.62c.575 0 1.047.467 1.047 1.042v43.75zM8.38 40.625c0-.575.471-1.042 1.048-1.042.576 0 1.047.467 1.047 1.042s-.471 1.042-1.047 1.042a1.046 1.046 0 01-1.048-1.042zm0-10.417c0-.575.471-1.041 1.048-1.041.576 0 1.047.466 1.047 1.041s-.471 1.042-1.047 1.042a1.046 1.046 0 01-1.048-1.042zm0-10.416c0-.575.471-1.042 1.048-1.042.576 0 1.047.467 1.047 1.042s-.471 1.041-1.047 1.041a1.046 1.046 0 01-1.048-1.041zm0-10.417c0-.575.471-1.042 1.048-1.042.576 0 1.047.467 1.047 1.042s-.471 1.042-1.047 1.042A1.046 1.046 0 018.38 9.375z" fill="#000"/></symbol><symbol fill="none" xmlns="http://www.w3.org/2000/svg" viewBox="0 0 50 50" id="icon-6"><path d="M30.851 30.631l-4.404-1.1-.34-1.364a9.738 9.738 0 002.552-5.052 2.405 2.405 0 001.51-1.938l.34-2.719a2.396 2.396 0 00-1.285-2.429l.106-2.17.417-.42c.7-.745 1.643-2.343.112-4.68-1.09-1.667-2.923-2.511-5.448-2.511-.965 0-3.17 0-5.263 1.364-6.04.16-6.825 3.17-6.825 5.79 0 .569.121 1.736.217 2.577a2.406 2.406 0 00-1.375 2.477l.34 2.719c.12.954.793 1.723 1.675 1.996a9.828 9.828 0 002.416 4.869l-.37 1.49-4.405 1.1a1.043 1.043 0 00-.758 1.262 1.04 1.04 0 001.262.758l5.011-1.252c.373-.094.665-.386.758-.758l.665-2.665a1.04 1.04 0 00-.3-1.013c-1.308-1.227-2.175-3.027-2.317-4.812a1.039 1.039 0 00-1.037-.958h-.22a.317.317 0 01-.314-.277l-.34-2.717a.3.3 0 01.078-.248c.035-.042.112-.108.379-.108a1.037 1.037 0 001.033-1.171c-.087-.69-.312-2.62-.312-3.267 0-1.631 0-3.662 5.081-3.712.213-.002.421-.07.596-.194 1.433-1.027 2.992-1.165 4.327-1.165 1.802 0 3.015.513 3.706 1.567.861 1.315.371 1.833.134 2.088l-.68.679a1.047 1.047 0 00-.304.687l-.164 3.4a1.037 1.037 0 001.027 1.092.32.32 0 01.235.108c.042.05.09.131.075.246l-.34 2.717c-.02.158-.155.279-.38.279a1.04 1.04 0 00-1.038.958c-.146 1.84-1.054 3.675-2.427 4.904a1.048 1.048 0 00-.315 1.03l.638 2.554c.094.373.383.666.758.758l5.01 1.252a1.037 1.037 0 001.26-.758 1.04 1.04 0 00-.757-1.263z" fill="#000"/><path d="M49.695 48.223L36.26 34.788c3.35-3.698 5.409-8.584 5.409-13.955C41.668 9.346 32.322 0 20.834 0S0 9.346 0 20.833c0 11.488 9.346 20.834 20.834 20.834 5.369 0 10.255-2.059 13.952-5.407l13.436 13.436a1.046 1.046 0 001.473 0 1.042 1.042 0 000-1.473zm-28.861-8.64c-10.34 0-18.75-8.412-18.75-18.75 0-10.337 8.41-18.75 18.75-18.75s18.75 8.413 18.75 18.75c0 10.338-8.41 18.75-18.75 18.75z" fill="#000"/></symbol><symbol fill="none" xmlns="http://www.w3.org/2000/svg" viewBox="0 0 16 16" id="phone"><path fill-rule="evenodd" clip-rule="evenodd" d="M3.983.989A3.433 3.433 0 00.987 4.394a10.619 10.619 0 0010.62 10.619M3.982.989a.164.164 0 01.17.098l1.64 3.83a.166.166 0 01-.013.156L4.423 7.147a1.135 1.135 0 00-.077 1.117l.002.004a7.376 7.376 0 003.415 3.399l.003.002a1.136 1.136 0 001.12-.084v-.001l2.043-1.362a.165.165 0 01.157-.014l3.825 1.639h.002a.164.164 0 01.098.17 3.433 3.433 0 01-3.405 2.995M3.865.021A1.139 1.139 0 015.05.705l1.64 3.828a1.14 1.14 0 01-.094 1.074l-1.36 2.078a.16.16 0 00-.012.156 6.401 6.401 0 002.96 2.947.16.16 0 00.157-.012l.003-.002 2.044-1.363a1.14 1.14 0 011.082-.1l3.824 1.64a1.138 1.138 0 01.685 1.184v.003a4.408 4.408 0 01-4.373 3.85A11.594 11.594 0 01.012 4.393 4.408 4.408 0 013.862.021h.003z" fill="#333"/></symbol><symbol fill="none" xmlns="http://www.w3.org/2000/svg" viewBox="0 0 10 1" id="breadcrumb_arrow"><path stroke="#F2D745" d="M0 .5h10"/></symbol></svg>