<svg width="81" height="68" fill="none" xmlns="http://www.w3.org/2000/svg"><g clip-path="url(#clip0_2_49)"><path d="M14.205 36.649c.733-1.49 2.857-1.49 3.59 0l2.432 4.945a2 2 0 001.51 1.097l5.455.785c1.643.237 2.3 2.257 1.11 3.414l-3.952 3.842a2 2 0 00-.577 1.775l.939 5.43c.283 1.637-1.436 2.885-2.904 2.11l-4.875-2.57a2 2 0 00-1.866 0l-4.875 2.57c-1.468.775-3.187-.473-2.904-2.11l.94-5.43a2 2 0 00-.578-1.775L3.7 46.89c-1.19-1.157-.534-3.177 1.109-3.414l5.455-.785a2 2 0 001.51-1.097l2.432-4.945z" fill="url(#paint0_linear_2_49)"/><g filter="url(#filter0_b_2_49)"><rect x="16" y="2" width="62" height="62" rx="20" fill="silver" fill-opacity=".72"/><path d="M37.63 20.5a.626.626 0 100 1.251.626.626 0 000-1.251zm-2.502 0a.626.626 0 100 1.251.626.626 0 000-1.251zm24.289 23.565l-1.878-.469-.079-.313a4.13 4.13 0 00.976-1.936c.334-.17.577-.5.627-.893l.135-1.088a1.164 1.164 0 00-.508-1.112l.031-.663.115-.115c.323-.342.76-1.073.068-2.129-.33-.5-1.004-1.097-2.356-1.097-.398 0-1.297 0-2.17.546-2.575.092-2.878 1.478-2.878 2.524 0 .206.038.593.072.915a1.166 1.166 0 00-.535 1.133l.136 1.087c.052.407.31.745.692.911.14.681.467 1.342.923 1.865l-.09.368-1.879.469a3.404 3.404 0 00-2.582 3.307.622.622 0 00.626.625l12.511-.004c.346 0 .626-.28.626-.625a3.403 3.403 0 00-2.583-3.306zM49.58 46.75a2.16 2.16 0 011.543-1.47l2.242-.56c.224-.055.4-.23.456-.454l.267-1.066a.623.623 0 00-.18-.608 2.828 2.828 0 01-.862-1.788c-.026-.325-.304-.505-.63-.505l-.162-.995a.623.623 0 00.62-.703c-.047-.377-.123-1.06-.123-1.28 0-.647 0-1.259 1.829-1.277a.627.627 0 00.358-.117c.595-.426 1.28-.426 1.61-.426.96 0 1.223.401 1.31.533.255.388.151.498.08.573l-.272.271a.627.627 0 00-.182.413l-.067 1.36c-.007.17.013.289.13.413.117.123.238.148.408.15l-.081 1.016a.626.626 0 00-.623.576 2.848 2.848 0 01-.903 1.823.625.625 0 00-.19.616l.256 1.021c.056.224.23.4.455.455l2.242.56a2.157 2.157 0 011.544 1.47L49.58 46.75z" fill="#333"/><path d="M47.013 44.25H35.128a1.878 1.878 0 01-1.877-1.875V24.25h25.02V33a.626.626 0 001.252 0V21.125A3.13 3.13 0 0056.395 18H35.128A3.13 3.13 0 0032 21.125v21.25a3.13 3.13 0 003.128 3.125h11.885a.625.625 0 100-1.25zM33.25 21.125c0-1.034.842-1.875 1.877-1.875h21.267c1.035 0 1.877.841 1.877 1.875V23h-25.02v-1.875z" fill="#333"/><path d="M40.132 20.5a.626.626 0 100 1.251.626.626 0 000-1.251z" fill="#333"/><rect x="16.5" y="2.5" width="61" height="61" rx="19.5" stroke="url(#paint1_linear_2_49)"/></g></g><defs><linearGradient id="paint0_linear_2_49" x1="20.612" y1="30.702" x2="-2.157" y2="43.492" gradientUnits="userSpaceOnUse"><stop stop-color="#FFE600"/><stop offset="1" stop-color="#FFF475"/></linearGradient><linearGradient id="paint1_linear_2_49" x1="47" y1="2" x2="47" y2="64" gradientUnits="userSpaceOnUse"><stop stop-color="#fff"/><stop offset="1" stop-color="#DFDFDF" stop-opacity=".41"/></linearGradient><clipPath id="clip0_2_49"><path fill="#fff" transform="translate(-772 -5039)" d="M0 0h1920v6412H0z"/></clipPath><filter id="filter0_b_2_49" x="6" y="-8" width="82" height="82" filterUnits="userSpaceOnUse" color-interpolation-filters="sRGB"><feFlood flood-opacity="0" result="BackgroundImageFix"/><feGaussianBlur in="BackgroundImage" stdDeviation="5"/><feComposite in2="SourceAlpha" operator="in" result="effect1_backgroundBlur_2_49"/><feBlend in="SourceGraphic" in2="effect1_backgroundBlur_2_49" result="shape"/></filter></defs></svg>