<svg width="26" height="26" fill="none" xmlns="http://www.w3.org/2000/svg"><path d="M11.205 1.649c.733-1.49 2.857-1.49 3.59 0l2.432 4.945a2 2 0 001.51 1.097l5.455.785c1.643.237 2.3 2.257 1.11 3.414l-3.952 3.842a2 2 0 00-.577 1.775l.939 5.43c.283 1.636-1.436 2.885-2.904 2.11l-4.875-2.57a2 2 0 00-1.866 0l-4.875 2.57c-1.468.775-3.187-.474-2.904-2.11l.94-5.43a2 2 0 00-.578-1.775L.7 11.89C-.49 10.733.165 8.713 1.809 8.476l5.455-.785a2 2 0 001.51-1.097l2.432-4.945z" fill="url(#paint0_linear_100_921)"/><defs><linearGradient id="paint0_linear_100_921" x1="17.612" y1="-4.298" x2="-5.157" y2="8.492" gradientUnits="userSpaceOnUse"><stop stop-color="#FFE600"/><stop offset="1" stop-color="#FFF475"/></linearGradient></defs></svg>